<?xml version="1.0" standalone="no"?>
<!--
  - Copyright 2022 the original author or authors.
  -
  - Licensed under the Apache License, Version 2.0 (the "License");
  - you may not use this file except in compliance with the License.
  - You may obtain a copy of the License at
  -
  - https://www.apache.org/licenses/LICENSE-2.0
  -
  - Unless required by applicable law or agreed to in writing,
  - software distributed under the License is distributed on an "AS IS" BASIS,
  - WITHOUT WARRANTIES OR CONDITIONS OF ANY KIND,
  - either express or implied.
  - See the License for the specific language governing permissions and
  - limitations under the License.
  -->

<!DOCTYPE svg PUBLIC "-//W3C//DTD SVG 20010904//EN"
        "http://www.w3.org/TR/2001/REC-SVG-20010904/DTD/svg10.dtd">
<svg version="1.0" xmlns="http://www.w3.org/2000/svg"
     width="302.000000pt" height="112.000000pt"
     viewBox="0 0 302.000000 112.000000"
     preserveAspectRatio="xMidYMid meet">

    <g transform="translate(0.000000,112.000000) scale(0.100000,-0.100000)"
       fill="#ce1632" stroke="none">
        <path d="M2232 812 c-251 -162 -351 -231 -349 -243 5 -19 243 -387 266 -412
16 -17 30 -9 292 159 151 97 311 199 356 228 45 28 82 57 83 64 0 7 -30 59
-66 115 -37 56 -98 150 -137 210 -38 59 -75 107 -81 106 -6 0 -170 -103 -364
-227z m516 -42 c64 -98 91 -149 86 -158 -5 -7 -46 -36 -91 -65 -46 -29 -192
-123 -327 -209 -134 -87 -246 -158 -249 -158 -7 0 -247 375 -247 386 0 5 95
70 210 144 115 74 267 172 337 217 l127 82 30 -47 c17 -26 73 -112 124 -192z"/>
        <path d="M2619 794 c-9 -11 -10 -20 -2 -32 12 -20 64 -23 71 -4 3 11 1 11 -16
1 -29 -18 -41 -2 -14 17 12 8 20 20 17 25 -9 14 -41 11 -56 -7z m31 -9 c-7 -8
-16 -15 -21 -15 -5 0 -6 7 -3 15 4 8 13 15 21 15 13 0 13 -3 3 -15z"/>
        <path d="M2552 754 c-26 -18 -28 -31 -6 -55 16 -18 41 -15 57 5 5 6 6 -2 4
-19 -5 -27 -4 -28 9 -11 11 16 11 23 -4 48 -26 44 -36 49 -60 32z m38 -19 c15
-18 5 -35 -21 -35 -14 0 -19 7 -19 25 0 28 21 33 40 10z"/>
        <path d="M2461 696 c-10 -12 -9 -20 4 -40 10 -14 21 -26 26 -26 5 0 2 11 -7
25 -8 13 -13 29 -9 35 11 18 31 11 45 -15 7 -14 15 -23 18 -20 3 2 -3 16 -12
30 -18 28 -47 33 -65 11z"/>
        <path d="M2391 651 c-9 -6 -11 -18 -7 -35 5 -20 12 -26 35 -26 18 0 31 6 36
18 5 14 4 15 -6 5 -7 -7 -22 -13 -33 -13 -19 1 -18 3 7 22 22 16 25 23 15 29
-17 11 -29 11 -47 0z m26 -18 c-9 -9 -19 -14 -23 -11 -10 10 6 28 24 28 15 0
15 -1 -1 -17z"/>
        <path d="M2320 647 c0 -10 51 -87 57 -87 5 0 -11 27 -44 75 -7 11 -13 16 -13
12z"/>
        <path d="M2290 615 c0 -10 53 -85 57 -81 3 2 -8 23 -23 45 -25 39 -34 48 -34
36z"/>
        <path d="M2253 563 c-7 -2 -13 -10 -13 -16 0 -8 4 -7 12 1 20 20 32 13 13 -8
-19 -21 -14 -50 8 -50 8 0 21 8 30 18 15 16 15 20 1 40 -15 22 -27 25 -51 15z
m42 -44 c-4 -5 -13 -9 -22 -9 -13 0 -13 3 -3 15 13 15 35 11 25 -6z"/>
        <path d="M2146 502 c26 -45 54 -78 54 -65 0 6 -4 15 -10 18 -15 9 -12 55 4 55
7 0 21 -12 31 -26 9 -14 19 -23 22 -21 2 3 -3 17 -12 31 -18 28 -44 33 -63 14
-9 -9 -13 -7 -18 5 -3 9 -10 17 -16 17 -5 0 -2 -13 8 -28z"/>
        <path d="M2078 475 c-17 -38 3 -75 41 -75 16 0 34 7 41 15 15 18 7 19 -20 3
-15 -10 -25 -10 -38 -2 -26 17 -22 56 8 71 25 13 25 13 2 13 -14 0 -26 -9 -34
-25z"/>
    </g>
</svg>
